<?xml version="1.0" encoding="UTF-8" ?>
<!DOCTYPE svg PUBLIC "-//W3C//DTD SVG 1.1//EN" "http://www.w3.org/Graphics/SVG/1.1/DTD/svg11.dtd">
<svg width="1024pt" height="1024pt" viewBox="0 0 1024 1024" version="1.1" xmlns="http://www.w3.org/2000/svg">
<defs>
  <linearGradient id="ring-light" x1="0" y1="0" x2="0" y2="1">
    <stop offset="0" stop-color="#9d40df" />
    <stop offset="1" stop-color="#8522cc" />
  </linearGradient>
  <linearGradient id="ring-dark" x1="0" y1="0" x2="0" y2="1">
    <stop offset="0" stop-color="#c084fc" />
    <stop offset="1" stop-color="#a855f7" />
  </linearGradient>
  <linearGradient id="key-light" x1="0" y1="0" x2="0" y2="1">
    <stop offset="0" stop-color="#201c24" />
    <stop offset="1" stop-color="#08060d" />
  </linearGradient>
  <linearGradient id="key-dark" x1="0" y1="0" x2="0" y2="1">
    <stop offset="0" stop-color="#ffffff" />
    <stop offset="1" stop-color="#e5e7eb" />
  </linearGradient>
</defs>
<style>
  .ring { fill: url(#ring-light); }
  .key { fill: url(#key-light); }
  @media (prefers-color-scheme: dark) {
    .ring { fill: url(#ring-dark); }
    .key { fill: url(#key-dark); }
  }
</style>
<path class="ring" fill="#8522cc" opacity="1.00" d=" M 475.61 123.76 C 493.33 120.39 511.48 120.37 529.43 121.40 C 568.72 124.85 606.77 140.74 636.99 166.06 C 660.34 185.71 679.23 210.79 691.08 238.94 C 699.92 259.85 705.05 282.32 706.01 305.01 C 706.64 323.16 705.52 341.51 701.09 359.18 C 691.81 397.53 669.86 432.32 640.71 458.72 C 616.51 480.54 587.35 497.09 555.67 505.12 C 542.81 508.86 529.37 509.90 516.08 510.93 C 500.66 510.97 485.26 508.96 470.22 505.63 C 432.84 496.40 398.51 475.82 372.04 447.97 C 343.83 418.21 324.13 379.72 319.50 338.76 C 315.01 303.08 320.12 266.01 335.40 233.35 C 350.91 199.34 376.57 170.15 408.06 150.05 C 428.61 137.04 451.74 128.28 475.61 123.76 M 500.37 195.39 C 483.06 197.02 465.93 202.02 450.94 210.92 C 432.69 221.71 417.18 237.11 406.32 255.31 C 397.33 270.89 391.63 288.48 390.67 306.49 C 389.22 328.40 393.19 350.93 403.72 370.32 C 413.31 388.12 426.77 404.10 443.82 415.14 C 470.62 432.65 504.16 438.98 535.59 433.47 C 555.52 430.37 574.52 421.81 590.29 409.29 C 605.80 397.04 617.83 380.63 625.47 362.45 C 638.30 330.68 637.54 293.51 622.29 262.70 C 609.60 237.58 588.26 216.86 562.44 205.54 C 543.14 196.71 521.46 193.47 500.37 195.39 Z" />
<rect class="key" x="470.2" y="505.6" width="85.5" height="375.4" rx="10" />
<rect class="key" x="470.2" y="505.6" width="205.8" height="70.4" rx="11" />
<rect class="key" x="470.2" y="650.4" width="182.8" height="70.4" rx="11" />
<rect class="key" x="470.2" y="810.6" width="205.8" height="70.4" rx="11" />
</svg>
